<svg width="82" height="82" viewBox="0 0 82 82" fill="none" xmlns="http://www.w3.org/2000/svg">
<g clip-path="url(#clip0)">
<path d="M77.1473 4.85289C77.0992 4.80485 77.0992 4.80485 77.051 4.75664C70.7091 -1.58555 59.658 -1.58555 53.3162 4.75664L29.2127 28.8602C22.6302 35.4426 22.6302 46.1088 29.2127 52.6434C29.2607 52.6911 29.2607 52.6911 29.3086 52.6911C32.5761 55.9583 36.8039 57.5438 41.0801 57.5438C45.4045 57.5438 49.6806 55.9104 52.9959 52.6432L77.051 28.5397C80.2705 25.3688 82 21.1405 82 16.6723C82 12.2041 80.3185 8.02383 77.1473 4.85289ZM70.2766 21.7652L46.173 45.8687C44.8279 47.2142 43.0021 47.9348 41.0801 47.9348C39.2063 47.9348 37.4285 47.2621 36.0834 45.917C36.0353 45.917 36.0353 45.917 35.9871 45.8689C33.2002 43.0343 33.1525 38.4699 35.9871 35.683L60.0906 11.5795C61.3398 10.3302 63.1656 9.6097 65.1836 9.6097C67.2016 9.6097 69.0273 10.3302 70.2766 11.5314C70.3246 11.5795 70.3246 11.5795 70.3728 11.6277C71.718 13.0205 72.3906 14.7506 72.3906 16.6723C72.3906 18.5941 71.6699 20.3719 70.2766 21.7652Z" fill="#EF487D" fill-opacity="0.74"/>
<path d="M67.7701 70.99C67.1554 70.99 66.5407 70.7554 66.0716 70.2862L59.2751 63.492C58.3367 62.5537 58.3367 61.0333 59.2751 60.0949C60.2134 59.1566 61.7338 59.1566 62.6722 60.0949L69.4687 66.8891C70.4071 67.8274 70.4071 69.3478 69.4687 70.2862C68.9994 70.7554 68.3848 70.99 67.7701 70.99Z" fill="#EF487D"/>
<path d="M74.5642 57.4019C74.3133 57.4019 74.0575 57.362 73.8041 57.2776L63.6129 53.8782C62.3554 53.4582 61.675 52.0975 62.095 50.84C62.5125 49.5824 63.8615 48.8975 65.1331 49.322L75.3243 52.7215C76.5819 53.1414 77.2622 54.5021 76.8423 55.7597C76.5068 56.7661 75.5707 57.4019 74.5642 57.4019Z" fill="#EF487D"/>
<path d="M54.1794 77.7866C53.173 77.7866 52.2369 77.1508 51.9013 76.1444L48.5043 65.9509C48.0843 64.6911 48.7647 63.3304 50.0222 62.9127C51.2868 62.4952 52.6405 63.1732 53.0604 64.4307L56.4575 74.6242C56.8774 75.884 56.1971 77.2446 54.9395 77.6623C54.6863 77.7467 54.4305 77.7866 54.1794 77.7866Z" fill="#EF487D"/>
<path d="M20.2065 23.4266C19.5918 23.4266 18.9771 23.1919 18.508 22.7227L11.7115 15.9285C10.7731 14.9902 10.7731 13.4698 11.7115 12.5315C12.65 11.5931 14.1702 11.5931 15.1087 12.5315L21.9052 19.3256C22.8436 20.264 22.8436 21.7843 21.9052 22.7227C21.4358 23.1919 20.8211 23.4266 20.2065 23.4266Z" fill="#EF487D"/>
<path d="M30.3977 20.0295C29.3912 20.0295 28.4551 19.3937 28.1196 18.3872L24.7225 8.19378C24.3026 6.93399 24.9829 5.5733 26.2405 5.15561C27.512 4.73328 28.861 5.41603 29.2787 6.67357L32.6757 16.867C33.0957 18.1268 32.4153 19.4875 31.1578 19.9052C30.9044 19.9896 30.6488 20.0295 30.3977 20.0295Z" fill="#EF487D"/>
<path d="M16.8071 33.62C16.5562 33.62 16.3004 33.5802 16.047 33.4958L5.85582 30.0963C4.59827 29.6763 3.91793 28.3157 4.33786 27.0581C4.75778 25.8006 6.11143 25.1226 7.37602 25.5401L17.5672 28.9396C18.8248 29.3596 19.5051 30.7202 19.0852 31.9778C18.7497 32.9844 17.8136 33.62 16.8071 33.62Z" fill="#EF487D"/>
<path d="M52.4672 29.5327C46.125 23.1426 35.0262 23.1426 28.684 29.5327L4.90093 53.3159C-1.6336 59.8504 -1.6336 70.5168 4.90093 77.0991C8.21617 80.3664 12.4922 82 16.8164 82C21.0926 82 25.4166 80.3663 28.6838 77.0991L52.467 53.3159C55.6383 50.1449 57.416 45.9168 57.416 41.4004C57.4162 36.932 55.6384 32.7039 52.4672 29.5327ZM45.6927 46.4934L21.9094 70.2766C20.5642 71.6217 18.7384 72.3906 16.8164 72.3906C14.8944 72.3906 13.0686 71.6217 11.7234 70.2766C8.8885 67.4897 8.8885 62.9252 11.7234 60.0906L35.5066 36.3074C36.7559 35.0582 38.5816 34.3854 40.5996 34.3854C42.5694 34.3854 44.4433 35.0581 45.6926 36.3074C47.0858 37.7006 47.8066 39.4784 47.8066 41.4004C47.8068 43.3702 47.0859 45.1002 45.6927 46.4934Z" fill="#FCBF29"/>
<path d="M57.4162 41.4004C57.4162 45.9168 55.6384 50.1449 52.4672 53.3158L28.684 77.0992C25.4168 80.3664 21.0927 82 16.8164 82C12.4922 82 8.21617 80.3664 4.90094 77.0992L11.7236 70.2765C13.0687 71.6217 14.8945 72.3906 16.8164 72.3906C18.7383 72.3906 20.5642 71.6217 21.9094 70.2765L45.6926 46.4933C47.0858 45.1001 47.8066 43.3701 47.8066 41.4004C47.8066 39.4783 47.0858 37.7006 45.6926 36.3074L52.467 29.5326C55.6384 32.7039 57.4162 36.932 57.4162 41.4004Z" fill="#FEA832"/>
<path d="M82 16.6722C82 21.1406 80.2703 25.3687 77.051 28.54L52.9959 52.6435C49.6806 55.9107 45.4043 57.5441 41.0801 57.5441C36.8039 57.5441 32.5759 55.9584 29.3086 52.6914L36.0834 45.9169C37.4285 47.2619 39.2063 47.9347 41.0801 47.9347C43.0021 47.9347 44.8279 47.2142 46.173 45.8687L70.2766 21.7652C71.6699 20.3719 72.3906 18.5941 72.3906 16.6722C72.3906 14.7505 71.718 13.0207 70.3728 11.6273L77.1473 4.85287C80.3185 8.02381 82 12.2039 82 16.6722Z" fill="#EF487D"/>
</g>
<defs>
<clipPath id="clip0">
<rect width="82" height="82" fill="white"/>
</clipPath>
</defs>
</svg>
