<svg width="40" height="40" viewBox="0 0 40 40" fill="none" xmlns="http://www.w3.org/2000/svg">
<path d="M36.6776 5.75658H28.3552V4.39967C28.3552 1.97368 26.3816 0 23.9556 0H16.0444C13.6184 0 11.6447 1.97368 11.6447 4.39967V5.75658H3.32236C2.70558 5.75658 2.21216 6.25 2.21216 6.86678C2.21216 7.48355 2.70558 7.97697 3.32236 7.97697H5.32893V34.0625C5.32893 37.3355 7.99341 40 11.2664 40H28.7335C32.0066 40 34.671 37.3355 34.671 34.0625V7.97697H36.6776C37.2944 7.97697 37.7878 7.48355 37.7878 6.86678C37.7878 6.25 37.2944 5.75658 36.6776 5.75658ZM13.8651 4.39967C13.8651 3.19901 14.8437 2.22039 16.0444 2.22039H23.9556C25.1562 2.22039 26.1349 3.19901 26.1349 4.39967V5.75658H13.8651V4.39967ZM32.4506 34.0625C32.4506 36.1102 30.7812 37.7796 28.7335 37.7796H11.2664C9.21874 37.7796 7.54933 36.1102 7.54933 34.0625V7.97697H32.4589V34.0625H32.4506Z" fill="#4D4A51"/>
<path d="M20 33.7994C20.6167 33.7994 21.1102 33.306 21.1102 32.6892V13.0675C21.1102 12.4507 20.6167 11.9573 20 11.9573C19.3832 11.9573 18.8898 12.4507 18.8898 13.0675V32.681C18.8898 33.2977 19.3832 33.7994 20 33.7994Z" fill="#4D4A51"/>
<path d="M12.7549 32.574C13.3717 32.574 13.8651 32.0806 13.8651 31.4638V14.2845C13.8651 13.6677 13.3717 13.1743 12.7549 13.1743C12.1381 13.1743 11.6447 13.6677 11.6447 14.2845V31.4638C11.6447 32.0806 12.1464 32.574 12.7549 32.574Z" fill="#4D4A51"/>
<path d="M27.245 32.574C27.8618 32.574 28.3552 32.0806 28.3552 31.4638V14.2845C28.3552 13.6677 27.8618 13.1743 27.245 13.1743C26.6282 13.1743 26.1348 13.6677 26.1348 14.2845V31.4638C26.1348 32.0806 26.6282 32.574 27.245 32.574Z" fill="#4D4A51"/>
</svg>
