<svg width="55" height="55" viewBox="0 0 55 55" fill="none" xmlns="http://www.w3.org/2000/svg">
<path d="M52.7783 25.2782H2.2217C0.994726 25.2782 0 26.2728 0 27.4999C0 28.727 0.994726 29.7216 2.2217 29.7216H52.7783C54.0054 29.7216 55 28.727 55 27.4999C55 26.2729 54.0054 25.2782 52.7783 25.2782Z" fill="#52C894"/>
<path d="M52.7783 8.42603H2.2217C0.994726 8.42603 0 9.42075 0 10.6477C0 11.8747 0.994726 12.8694 2.2217 12.8694H52.7783C54.0054 12.8694 55 11.8747 55 10.6477C55 9.42075 54.0054 8.42603 52.7783 8.42603Z" fill="#52C894"/>
<path d="M52.7783 42.1306H2.2217C0.994726 42.1306 0 43.1252 0 44.3523C0 45.5794 0.994726 46.574 2.2217 46.574H52.7783C54.0054 46.574 55 45.5794 55 44.3523C55 43.1252 54.0054 42.1306 52.7783 42.1306Z" fill="#52C894"/>
</svg>
