<svg width="40" height="40" viewBox="0 0 40 40" fill="none" xmlns="http://www.w3.org/2000/svg">
<circle cx="20" cy="20" r="20" fill="#52C894"/>
<g clip-path="url(#clip0)">
<path d="M24.7243 25.6146L24.7243 25.6145L24.7196 25.6192L18.7208 31.6741C18.7206 31.6743 18.7204 31.6745 18.7202 31.6747C16.1174 34.2768 11.9276 34.2726 9.38473 31.6768L9.38474 31.6768L9.38201 31.6741C6.77926 29.0713 6.78323 24.881 9.37926 22.338L9.38201 22.3352L12.7417 18.9755C12.5636 20.2659 12.6871 21.5817 13.113 22.8147L11.4872 24.4405C10.1039 25.8237 10.1122 28.1316 11.4814 29.563L11.4813 29.5631L11.4872 29.569C12.9234 31.0051 15.1795 31.0051 16.6157 29.569L22.6157 23.569C23.304 22.8807 23.6788 21.9437 23.6788 21.0047C23.6788 20.0657 23.304 19.1288 22.6157 18.4405C22.1274 17.9522 21.5139 17.6216 20.8633 17.4708L23.1615 15.1727C23.6937 15.4314 24.2029 15.8096 24.7271 16.2854C25.25 16.81 25.674 17.4441 25.995 18.0854C27.1635 20.5319 26.7855 23.6062 24.7243 25.6146Z" fill="white" stroke="#52C894" stroke-width="0.75"/>
<path d="M16.2757 15.3854L16.2758 15.3854L16.2804 15.3807L22.2792 9.32591C22.2794 9.32572 22.2796 9.32553 22.2798 9.32533C24.8826 6.72317 29.0724 6.72733 31.6153 9.32317L31.6153 9.32318L31.618 9.32591C34.2208 11.9287 34.2168 16.119 31.6208 18.662L31.6208 18.662L31.618 18.6648L28.2583 22.0245C28.4364 20.734 28.3129 19.4183 27.8871 18.1853L29.5128 16.5595C30.8961 15.1762 30.8878 12.8684 29.5187 11.437L29.5187 11.4369L29.5128 11.431C28.0767 9.99485 25.8205 9.99485 24.3844 11.431L24.3819 11.4335L18.4391 17.4885C17.7517 18.1766 17.3773 19.113 17.3773 20.0514C17.3773 20.9904 17.7521 21.9274 18.4404 22.6157C18.9288 23.104 19.5422 23.4345 20.1928 23.5853L17.9005 25.8776C17.3164 25.5772 16.7993 25.1924 16.2729 24.7146C15.75 24.19 15.3261 23.5559 15.0051 22.9147C13.8365 20.4682 14.2145 17.3938 16.2757 15.3854Z" fill="white" stroke="#52C894" stroke-width="0.75"/>
</g>
<defs>
<clipPath id="clip0">
<rect width="27" height="27" fill="white" transform="translate(7 7)"/>
</clipPath>
</defs>
</svg>
