<svg width="19" height="19" viewBox="0 0 19 19" fill="none" xmlns="http://www.w3.org/2000/svg">
<g clip-path="url(#clip0)">
<path d="M8.50341 18.2578C8.50341 18.6678 8.17102 19 7.76108 19H0.742188C0.332245 19 0 18.6678 0 18.2578V0.742188C0 0.332245 0.332245 0 0.742188 0H7.76122C8.17102 0 8.50341 0.332245 8.50341 0.742188C8.50341 1.15213 8.17117 1.48438 7.76122 1.48438H1.48438V17.5156H7.76108C8.17102 17.5156 8.50341 17.8479 8.50341 18.2578ZM18.783 8.97511L14.5846 4.77667C14.2946 4.4869 13.8248 4.4869 13.5349 4.77667C13.2451 5.06659 13.2451 5.5364 13.5349 5.82632L16.4664 8.75781H3.56264C3.1527 8.75781 2.82046 9.09006 2.82046 9.5C2.82046 9.90994 3.1527 10.2422 3.56264 10.2422H16.4664L13.5349 13.1735C13.2451 13.4635 13.2451 13.9334 13.5349 14.2232C13.8248 14.5131 14.2948 14.513 14.5846 14.2232L18.7831 10.0247C18.8827 9.92545 18.9574 9.79064 18.9862 9.64496C19.0325 9.41143 18.9622 9.15413 18.783 8.97511Z" fill="#4D4A51"/>
</g>
<defs>
<clipPath id="clip0">
<rect width="19" height="19" fill="white"/>
</clipPath>
</defs>
</svg>
