<svg width="161" height="40" viewBox="0 0 161 40" fill="none" xmlns="http://www.w3.org/2000/svg">
<circle cx="20" cy="20" r="20" fill="#52C894"/>
<g clip-path="url(#clip0)">
<path d="M24.7242 25.6146L24.7242 25.6145L24.7195 25.6192L18.7208 31.6741C18.7206 31.6743 18.7204 31.6745 18.7202 31.6747C16.1174 34.2768 11.9275 34.2726 9.38466 31.6768L9.38468 31.6768L9.38194 31.6741C6.7792 29.0713 6.78317 24.881 9.3792 22.338L9.38194 22.3352L12.7417 18.9755C12.5636 20.2659 12.687 21.5817 13.1129 22.8147L11.4871 24.4405C10.1038 25.8237 10.1121 28.1316 11.4813 29.563L11.4812 29.5631L11.4871 29.569C12.9233 31.0051 15.1794 31.0051 16.6156 29.569L22.6156 23.569C23.3039 22.8807 23.6787 21.9437 23.6787 21.0047C23.6787 20.0657 23.3039 19.1288 22.6156 18.4405C22.1273 17.9522 21.5138 17.6216 20.8633 17.4708L23.1614 15.1727C23.6937 15.4314 24.2028 15.8096 24.727 16.2854C25.2499 16.81 25.6739 17.4441 25.9949 18.0854C27.1635 20.5319 26.7855 23.6062 24.7242 25.6146Z" fill="white" stroke="#52C894" stroke-width="0.75"/>
<path d="M16.2757 15.3854L16.2758 15.3854L16.2804 15.3807L22.2792 9.32591C22.2794 9.32572 22.2796 9.32553 22.2798 9.32533C24.8826 6.72317 29.0724 6.72733 31.6153 9.32317L31.6153 9.32318L31.618 9.32591C34.2208 11.9287 34.2168 16.119 31.6208 18.662L31.6208 18.662L31.618 18.6648L28.2583 22.0245C28.4364 20.734 28.3129 19.4183 27.8871 18.1853L29.5128 16.5595C30.8961 15.1762 30.8878 12.8684 29.5187 11.437L29.5187 11.4369L29.5128 11.431C28.0767 9.99485 25.8205 9.99485 24.3844 11.431L24.3819 11.4335L18.4391 17.4885C17.7517 18.1766 17.3773 19.113 17.3773 20.0514C17.3773 20.9904 17.7521 21.9274 18.4404 22.6157C18.9288 23.104 19.5422 23.4345 20.1928 23.5853L17.9005 25.8776C17.3164 25.5772 16.7993 25.1924 16.2729 24.7146C15.75 24.19 15.3261 23.5559 15.0051 22.9147C13.8365 20.4682 14.2145 17.3938 16.2757 15.3854Z" fill="white" stroke="#52C894" stroke-width="0.75"/>
</g>
<path d="M56.0078 28H53.8516V20.1133H46.9844V28H44.8398V10.9375H46.9844V18.2734H53.8516V10.9375H56.0078V28ZM65.957 28C65.832 27.7266 65.7422 27.2656 65.6875 26.6172C64.9531 27.6953 64.0156 28.2344 62.875 28.2344C61.7266 28.2344 60.8281 27.9141 60.1797 27.2734C59.5391 26.625 59.2188 25.7148 59.2188 24.543C59.2188 23.2539 59.6562 22.2305 60.5312 21.4727C61.4062 20.7148 62.6055 20.3281 64.1289 20.3125H65.6523V18.9648C65.6523 18.207 65.4844 17.668 65.1484 17.3477C64.8125 17.0273 64.3008 16.8672 63.6133 16.8672C62.9883 16.8672 62.4805 17.0547 62.0898 17.4297C61.6992 17.7969 61.5039 18.2656 61.5039 18.8359H59.4297C59.4297 18.1875 59.6211 17.5703 60.0039 16.9844C60.3867 16.3906 60.9023 15.9258 61.5508 15.5898C62.1992 15.2539 62.9219 15.0859 63.7188 15.0859C65.0156 15.0859 66 15.4102 66.6719 16.0586C67.3516 16.6992 67.6992 17.6367 67.7148 18.8711V25.2695C67.7227 26.2461 67.8555 27.0938 68.1133 27.8125V28H65.957ZM63.1914 26.3477C63.6992 26.3477 64.1836 26.207 64.6445 25.9258C65.1055 25.6445 65.4414 25.293 65.6523 24.8711V21.8477H64.4805C63.4961 21.8633 62.7188 22.0859 62.1484 22.5156C61.5781 22.9375 61.293 23.5312 61.293 24.2969C61.293 25.0156 61.4375 25.5391 61.7266 25.8672C62.0156 26.1875 62.5039 26.3477 63.1914 26.3477ZM80.125 22.2695C80.125 24.2461 79.7695 25.7344 79.0586 26.7344C78.3477 27.7344 77.3164 28.2344 75.9648 28.2344C74.6211 28.2344 73.6133 27.6562 72.9414 26.5L72.8359 28H70.9492V10H73.0117V16.7148C73.6914 15.6289 74.668 15.0859 75.9414 15.0859C77.332 15.0859 78.375 15.5781 79.0703 16.5625C79.7656 17.5469 80.1172 19.0312 80.125 21.0156V22.2695ZM78.0625 21.0859C78.0625 19.5859 77.8516 18.5195 77.4297 17.8867C77.0156 17.2461 76.3398 16.9258 75.4023 16.9258C74.332 16.9258 73.5352 17.5039 73.0117 18.6602V24.6953C73.5273 25.8359 74.332 26.4062 75.4258 26.4062C76.3633 26.4062 77.0352 26.0781 77.4414 25.4219C77.8477 24.7656 78.0547 23.7461 78.0625 22.3633V21.0859ZM85.0117 28H82.9375V15.3203H85.0117V28ZM85.1758 11.957C85.1758 12.3086 85.0781 12.6016 84.8828 12.8359C84.6875 13.0703 84.3906 13.1875 83.9922 13.1875C83.6016 13.1875 83.3086 13.0703 83.1133 12.8359C82.918 12.6016 82.8203 12.3086 82.8203 11.957C82.8203 11.6055 82.918 11.3086 83.1133 11.0664C83.3086 10.8242 83.6016 10.7031 83.9922 10.7031C84.3828 10.7031 84.6758 10.8281 84.8711 11.0781C85.0742 11.3203 85.1758 11.6133 85.1758 11.957ZM91 12.25V15.3203H92.9102V16.9961H91V24.8594C91 25.3594 91.082 25.7383 91.2461 25.9961C91.4102 26.2539 91.6914 26.3828 92.0898 26.3828C92.3633 26.3828 92.6406 26.3359 92.9219 26.2422L92.8984 28C92.4297 28.1562 91.9492 28.2344 91.457 28.2344C90.6367 28.2344 90.0117 27.9414 89.582 27.3555C89.1523 26.7695 88.9375 25.9414 88.9375 24.8711V16.9961H87.0039V15.3203H88.9375V12.25H91ZM95.6758 28V10.9375H100.539C102.094 10.9375 103.262 11.3164 104.043 12.0742C104.832 12.832 105.227 13.9688 105.227 15.4844C105.227 16.2812 105.027 16.9844 104.629 17.5938C104.23 18.2031 103.691 18.6758 103.012 19.0117C103.793 19.2461 104.41 19.7266 104.863 20.4531C105.324 21.1797 105.555 22.0547 105.555 23.0781C105.555 24.6094 105.133 25.8125 104.289 26.6875C103.453 27.5625 102.258 28 100.703 28H95.6758ZM97.8203 20.0195V26.1602H100.75C101.562 26.1602 102.207 25.8945 102.684 25.3633C103.16 24.8242 103.398 24.0703 103.398 23.1016C103.398 21.0469 102.531 20.0195 100.797 20.0195H97.8203ZM97.8203 18.2148H100.574C101.316 18.2148 101.914 17.9648 102.367 17.4648C102.828 16.9648 103.059 16.3008 103.059 15.4727C103.059 14.5352 102.852 13.8555 102.438 13.4336C102.023 13.0039 101.391 12.7891 100.539 12.7891H97.8203V18.2148ZM114.953 26.8867C114.266 27.7852 113.262 28.2344 111.941 28.2344C110.793 28.2344 109.926 27.8398 109.34 27.0508C108.754 26.2539 108.457 25.0977 108.449 23.582V15.3203H110.512V23.4297C110.512 25.4062 111.105 26.3945 112.293 26.3945C113.551 26.3945 114.418 25.832 114.895 24.707V15.3203H116.969V28H115L114.953 26.8867ZM122.324 28H120.25V15.3203H122.324V28ZM122.488 11.957C122.488 12.3086 122.391 12.6016 122.195 12.8359C122 13.0703 121.703 13.1875 121.305 13.1875C120.914 13.1875 120.621 13.0703 120.426 12.8359C120.23 12.6016 120.133 12.3086 120.133 11.957C120.133 11.6055 120.23 11.3086 120.426 11.0664C120.621 10.8242 120.914 10.7031 121.305 10.7031C121.695 10.7031 121.988 10.8281 122.184 11.0781C122.387 11.3203 122.488 11.6133 122.488 11.957ZM127.832 28H125.758V10H127.832V28ZM130.668 21.0859C130.668 19.1328 131.031 17.6445 131.758 16.6211C132.492 15.5977 133.543 15.0859 134.91 15.0859C136.121 15.0859 137.066 15.5781 137.746 16.5625V10H139.82V28H137.922L137.816 26.6406C137.137 27.7031 136.164 28.2344 134.898 28.2344C133.586 28.2344 132.555 27.7266 131.805 26.7109C131.062 25.6875 130.684 24.2461 130.668 22.3867V21.0859ZM132.742 22.2695C132.742 23.6914 132.953 24.7383 133.375 25.4102C133.797 26.0742 134.484 26.4062 135.438 26.4062C136.469 26.4062 137.238 25.8867 137.746 24.8477V18.4492C137.215 17.4336 136.449 16.9258 135.449 16.9258C134.496 16.9258 133.809 17.2617 133.387 17.9336C132.965 18.5977 132.75 19.6211 132.742 21.0039V22.2695ZM147.543 28.2344C145.965 28.2344 144.754 27.7656 143.91 26.8281C143.066 25.8828 142.637 24.5 142.621 22.6797V21.1445C142.621 19.2539 143.031 17.7734 143.852 16.7031C144.68 15.625 145.832 15.0859 147.309 15.0859C148.793 15.0859 149.902 15.5586 150.637 16.5039C151.371 17.4492 151.746 18.9219 151.762 20.9219V22.2812H144.684V22.5742C144.684 23.9336 144.938 24.9219 145.445 25.5391C145.961 26.1562 146.699 26.4648 147.66 26.4648C148.27 26.4648 148.805 26.3516 149.266 26.125C149.734 25.8906 150.172 25.5234 150.578 25.0234L151.656 26.3359C150.758 27.6016 149.387 28.2344 147.543 28.2344ZM147.309 16.8672C146.449 16.8672 145.812 17.1641 145.398 17.7578C144.984 18.3438 144.75 19.2578 144.695 20.5H149.688V20.2188C149.633 19.0156 149.414 18.1562 149.031 17.6406C148.656 17.125 148.082 16.8672 147.309 16.8672ZM159.496 17.2656C159.207 17.2109 158.895 17.1836 158.559 17.1836C157.496 17.1836 156.754 17.7656 156.332 18.9297V28H154.258V15.3203H156.273L156.309 16.6094C156.863 15.5938 157.648 15.0859 158.664 15.0859C158.992 15.0859 159.266 15.1406 159.484 15.25L159.496 17.2656Z" fill="#52C894"/>
<defs>
<clipPath id="clip0">
<rect width="27" height="27" fill="white" transform="translate(7 7)"/>
</clipPath>
</defs>
</svg>
