<svg width="19" height="19" viewBox="0 0 19 19" fill="none" xmlns="http://www.w3.org/2000/svg">
<g clip-path="url(#clip0)">
<path d="M18.0275 7.50646L16.6939 7.28023C16.5549 6.83172 16.3763 6.3991 16.158 5.98632L16.9439 4.88689C17.2773 4.41854 17.2257 3.77952 16.8169 3.37468L15.6341 2.1919C15.4119 1.96963 15.1181 1.84659 14.8046 1.84659C14.5585 1.84659 14.3243 1.922 14.1259 2.06489L13.0225 2.85076C12.5938 2.62452 12.1453 2.43798 11.6809 2.29906L11.4587 0.981334C11.3634 0.413759 10.8752 0.000976562 10.2997 0.000976562H8.62873C8.05322 0.000976562 7.56502 0.413759 7.46977 0.981334L7.23956 2.33081C6.79503 2.46973 6.3624 2.65231 5.94962 2.87457L4.85813 2.0887C4.65967 1.94581 4.42153 1.8704 4.17545 1.8704C3.86189 1.8704 3.56421 1.99344 3.34592 2.21571L2.15917 3.39849C1.75432 3.80333 1.69876 4.44235 2.03216 4.9107L2.82597 6.02601C2.60767 6.44276 2.43303 6.87538 2.29808 7.32389L0.980357 7.54615C0.412782 7.64141 0 8.12961 0 8.70512V10.3761C0 10.9516 0.412782 11.4398 0.980357 11.5351L2.32984 11.7653C2.46875 12.2098 2.65133 12.6424 2.8736 13.0552L2.09169 14.1427C1.75829 14.6111 1.80989 15.2501 2.2187 15.6549L3.40148 16.8377C3.62375 17.06 3.91746 17.183 4.23102 17.183C4.4771 17.183 4.71127 17.1076 4.90972 16.9647L6.02503 16.1709C6.42591 16.3813 6.84662 16.5519 7.27925 16.6869L7.50152 18.0205C7.59678 18.5881 8.08497 19.0009 8.66048 19.0009H10.3354C10.9109 19.0009 11.3991 18.5881 11.4944 18.0205L11.7206 16.6869C12.1691 16.548 12.6018 16.3694 13.0145 16.1511L14.114 16.9369C14.3124 17.0798 14.5506 17.1552 14.7966 17.1552C15.1102 17.1552 15.4039 17.0322 15.6262 16.8099L16.809 15.6272C17.2138 15.2223 17.2694 14.5833 16.936 14.1149L16.1501 13.0115C16.3684 12.5948 16.551 12.1622 16.6859 11.7176L18.0195 11.4954C18.5871 11.4001 18.9999 10.9119 18.9999 10.3364V8.66543C19.0078 8.08992 18.595 7.60172 18.0275 7.50646ZM17.9362 10.3364C17.9362 10.388 17.9005 10.4317 17.8489 10.4396L16.1819 10.7174C15.9715 10.7532 15.8048 10.9079 15.7532 11.1104C15.6024 11.6938 15.3722 12.2535 15.0626 12.7734C14.9554 12.956 14.9633 13.1822 15.0864 13.3569L16.0667 14.7381C16.0945 14.7778 16.0906 14.8373 16.0548 14.873L14.8721 16.0558C14.8443 16.0836 14.8165 16.0876 14.7966 16.0876C14.7728 16.0876 14.753 16.0796 14.7371 16.0677L13.3598 15.0874C13.1892 14.9643 12.959 14.9564 12.7764 15.0636C12.2565 15.3731 11.6968 15.6033 11.1134 15.7542C10.907 15.8058 10.7522 15.9764 10.7204 16.1828L10.4386 17.8498C10.4307 17.9014 10.387 17.9371 10.3354 17.9371H8.66445C8.61286 17.9371 8.5692 17.9014 8.56126 17.8498L8.28342 16.1828C8.2477 15.9725 8.09291 15.8058 7.89049 15.7542C7.32291 15.6073 6.77518 15.3811 6.26317 15.0874C6.17982 15.0397 6.08457 15.0159 5.99328 15.0159C5.88611 15.0159 5.77498 15.0477 5.68369 15.1151L4.29452 16.1034C4.27468 16.1153 4.25483 16.1233 4.23498 16.1233C4.21911 16.1233 4.18736 16.1193 4.15957 16.0915L2.97679 14.9088C2.94107 14.873 2.9371 14.8175 2.96489 14.7738L3.94127 13.4045C4.06432 13.2298 4.07225 12.9996 3.96509 12.8171C3.6555 12.3011 3.41736 11.7414 3.26653 11.158C3.21097 10.9556 3.04427 10.8008 2.83788 10.7651L1.15896 10.4793C1.10737 10.4714 1.07165 10.4277 1.07165 10.3761V8.70512C1.07165 8.65352 1.10737 8.60986 1.15896 8.60192L2.81406 8.32409C3.02442 8.28837 3.19509 8.13358 3.24669 7.92718C3.39354 7.34373 3.61978 6.78013 3.9254 6.26018C4.03256 6.0776 4.02066 5.85137 3.89761 5.6807L2.90932 4.29153C2.88154 4.25184 2.88551 4.1923 2.92123 4.15658L4.10401 2.9738C4.13179 2.94602 4.15957 2.94205 4.17942 2.94205C4.20323 2.94205 4.22308 2.94999 4.23895 2.96189L5.60828 3.93828C5.78292 4.06132 6.01312 4.06926 6.1957 3.9621C6.71168 3.65251 7.27131 3.41437 7.85477 3.26354C8.05719 3.20798 8.21198 3.04127 8.2477 2.83488L8.53347 1.15597C8.54141 1.10437 8.58507 1.06865 8.63667 1.06865H10.3076C10.3592 1.06865 10.4029 1.10437 10.4108 1.15597L10.6887 2.81107C10.7244 3.02143 10.8792 3.1921 11.0856 3.2437C11.6849 3.39452 12.2565 3.6287 12.7883 3.94225C12.9709 4.04942 13.1971 4.04148 13.3718 3.91844L14.7411 2.93411C14.7609 2.9222 14.7808 2.91426 14.8006 2.91426C14.8165 2.91426 14.8482 2.91823 14.876 2.94602L16.0588 4.1288C16.0945 4.16452 16.0985 4.22008 16.0707 4.26374L15.0904 5.64101C14.9673 5.81168 14.9594 6.04188 15.0665 6.22446C15.3761 6.74441 15.6063 7.30404 15.7572 7.88749C15.8088 8.09388 15.9794 8.24868 16.1858 8.28043L17.8528 8.56223C17.9044 8.57017 17.9401 8.61383 17.9401 8.66543V10.3364H17.9362V10.3364Z" fill="#4D4A51"/>
<path d="M9.50195 5.39795C7.23959 5.39795 5.40192 7.23562 5.40192 9.49799C5.40192 11.7603 7.23959 13.598 9.50195 13.598C11.7643 13.598 13.602 11.7603 13.602 9.49799C13.602 7.23562 11.7643 5.39795 9.50195 5.39795ZM9.50195 12.5264C7.83098 12.5264 6.47356 11.169 6.47356 9.49799C6.47356 7.82701 7.83098 6.46959 9.50195 6.46959C11.1729 6.46959 12.5303 7.82701 12.5303 9.49799C12.5303 11.169 11.1729 12.5264 9.50195 12.5264Z" fill="#4D4A51"/>
</g>
<defs>
<clipPath id="clip0">
<rect width="19" height="19" fill="white"/>
</clipPath>
</defs>
</svg>
