<svg width="16" height="16" viewBox="0 0 16 16" fill="none" xmlns="http://www.w3.org/2000/svg">
<path d="M0.0169133 12L0 15.2911C0 15.4768 0.0676533 15.6624 0.20296 15.7975C0.338266 15.9325 0.5074 16 0.693446 16L3.97463 15.9831C4.16068 15.9831 4.32981 15.9156 4.46512 15.7806L15.797 4.47257C16.0677 4.20253 16.0677 3.76371 15.797 3.47679L12.5497 0.202532C12.2791 -0.0675105 11.8393 -0.0675105 11.5518 0.202532L9.28541 2.48101L0.219873 11.5105C0.10148 11.6456 0.0169133 11.8143 0.0169133 12V12ZM12.0592 1.68776L14.3425 3.96624L13.0571 5.24895L10.7738 2.97046L12.0592 1.68776ZM1.42072 12.3038L9.7759 3.96624L12.0592 6.24473L3.70402 14.5654L1.40381 14.5823L1.42072 12.3038V12.3038Z" fill="white"/>
</svg>
